<svg height="512" viewBox="0 0 128 128" width="512" xmlns="http://www.w3.org/2000/svg" xmlns:xlink="http://www.w3.org/1999/xlink"><linearGradient id="a" gradientUnits="userSpaceOnUse" x1="104.043" x2="54.013" y1="99.141" y2="49.111"><stop offset="0" stop-color="#b660e9"/><stop offset="1" stop-color="#ffdd46"/></linearGradient><path d="m103.882 97.5c0 4.043-5.5 6.655-14.01 6.655-.589 0-1.263-.008-2-.021a1.75 1.75 0 0 1 .029-3.5h.032c.711.012 1.364.02 1.935.02 7.336 0 10.51-2.089 10.51-3.155 0-.512-.808-1.411-2.581-2.172-1.708-.734-4.88-1.608-10.291-1.608-7.527 0-11.45-1.021-13.12-3.413-1.575-2.255-.608-4.885.245-7.206 1.31-3.567 1.557-5.046-1.076-6.441a1.75 1.75 0 1 1 1.636-3.093c5.586 2.956 3.865 7.641 2.725 10.742-.611 1.664-1.19 3.236-.66 4 .5.716 2.495 1.916 10.25 1.916a30.61 30.61 0 0 1 11.672 1.891c4.093 1.752 4.704 4.126 4.704 5.385zm-21.817 2.965-1.083-.04a1.75 1.75 0 1 0 -.132 3.5l1.087.041h.063a1.75 1.75 0 0 0 .063-3.5zm-7.609-.315c-2.526-.116-4.285-.205-4.376-.208q-.735 0-1.375-.007c2.666-1.226 2.979-2.706 2.751-3.756-.292-1.342-1.068-4.909-25.084-3.952a1.75 1.75 0 1 0 .139 3.5c13.371-.533 18.654.446 20.622 1.083l-.163.068c-.131.045-.412.12-.776.219-3.544.965-6.343 1.728-6.05 3.918.26 1.949 2.2 2.428 9.793 2.428h.054s1.767.09 4.305.206h.081a1.75 1.75 0 0 0 .079-3.5zm-33.44-6.116a1.75 1.75 0 0 1 -1.745 1.64q-.055 0-.111 0c-13.212-.831-15.07-5.647-15.26-7.674-.31-3.4 2.906-6.539 8-7.813a12.832 12.832 0 0 0 1.67-.518c-.406-.305-.93-.644-1.3-.887-1.649-1.07-3.354-2.177-3.181-3.961a3.093 3.093 0 0 1 2.267-2.471c2.376-.953 6.69-1.533 12.786-1.737a11.233 11.233 0 0 1 2.548-7.67 8.762 8.762 0 0 1 1.479-1.4 13.012 13.012 0 0 1 11.863-1.816l13.048-14.381a1.75 1.75 0 0 1 2.592 2.354l-7.193 7.927 3.859 3.858 26.808-24.328a4.488 4.488 0 1 0 -6.34-6.34l-7.947 8.757a1.749 1.749 0 1 1 -2.591-2.351l7.946-8.758a7.988 7.988 0 1 1 11.286 11.284l-33.266 30.184a13.29 13.29 0 0 1 .5 6.616 12.091 12.091 0 0 1 -5.245 8.06c-3.42 2.255-8.315 2.879-12.684 2.879a55.206 55.206 0 0 1 -10-.953 1.75 1.75 0 0 1 -.686-3.127l2.43-1.778a5.492 5.492 0 0 0 2.088-5.537 50.568 50.568 0 0 0 -11.23 1.243c.269.184.546.363.766.506 1.739 1.129 3.711 2.408 3.375 4.424-.324 1.943-2.608 2.765-4.8 3.312-3.647.912-5.486 2.792-5.366 4.1s2.778 3.924 11.989 4.5a1.749 1.749 0 0 1 1.645 1.856zm22.264-32.68a12.934 12.934 0 0 1 3.1 3c.08.109.146.227.222.338l3.145-2.854-3.619-3.619zm-17.742 20.335c4.561.489 11.887.728 16.027-2a8.634 8.634 0 0 0 3.728-5.758 9.824 9.824 0 0 0 -1.741-7.509 9.538 9.538 0 0 0 -13.315-2.057 5.206 5.206 0 0 0 -.879.844 8.041 8.041 0 0 0 -1.5 7.022c.896 3.869.073 7.182-2.32 9.458zm33.391-38.435a1.747 1.747 0 0 0 1.3-.574l.632-.7a1.75 1.75 0 0 0 -2.591-2.353l-.633.7a1.75 1.75 0 0 0 1.3 2.926zm-28.648 28.592a1.815 1.815 0 0 0 .253.018 1.752 1.752 0 0 0 1.731-1.5c.049-.345.589-3.363 4.453-2.981a1.75 1.75 0 1 0 .347-3.482c-5.763-.579-7.93 3.647-8.265 5.962a1.75 1.75 0 0 0 1.481 1.983z" fill="url(#a)"/></svg>